<svg xmlns="http://www.w3.org/2000/svg" xmlns:xlink="http://www.w3.org/1999/xlink" width="63" zoomAndPan="magnify" viewBox="0 0 47.25 42.749999" height="57" preserveAspectRatio="xMidYMid meet" version="1.0"><defs><clipPath id="ce6a36b6e7"><path d="M 20 12.835938 L 26 12.835938 L 26 19 L 20 19 Z M 20 12.835938 " clip-rule="nonzero"/></clipPath><clipPath id="91e2b2b3c3"><path d="M 15.679688 18 L 31.183594 18 L 31.183594 29.816406 L 15.679688 29.816406 Z M 15.679688 18 " clip-rule="nonzero"/></clipPath></defs><g clip-path="url(#ce6a36b6e7)"><path fill="#ffffff" d="M 23.273438 18.171875 C 24.757812 18.171875 25.964844 16.980469 25.964844 15.511719 C 25.964844 14.046875 24.757812 12.851562 23.273438 12.851562 C 21.789062 12.851562 20.578125 14.042969 20.578125 15.511719 C 20.578125 16.976562 21.789062 18.167969 23.273438 18.167969 Z M 22.527344 16.105469 C 22.613281 15.976562 22.792969 15.9375 22.921875 16.023438 C 23.042969 16.101562 23.179688 16.136719 23.324219 16.128906 C 23.480469 16.121094 23.589844 16.0625 23.613281 16.039062 C 23.636719 16.007812 23.652344 15.957031 23.640625 15.925781 C 23.621094 15.871094 23.546875 15.835938 23.5 15.816406 C 23.46875 15.804688 23.4375 15.796875 23.398438 15.785156 C 23.355469 15.769531 23.3125 15.753906 23.265625 15.742188 C 23.042969 15.664062 22.730469 15.519531 22.605469 15.191406 C 22.53125 14.988281 22.566406 14.769531 22.699219 14.582031 C 22.800781 14.449219 22.941406 14.351562 23.101562 14.300781 L 23.101562 14.195312 C 23.109375 14.039062 23.246094 13.910156 23.398438 13.917969 C 23.554688 13.917969 23.683594 14.050781 23.679688 14.203125 L 23.679688 14.316406 C 23.785156 14.347656 23.894531 14.398438 23.984375 14.460938 C 24.113281 14.550781 24.140625 14.726562 24.050781 14.855469 C 23.957031 14.980469 23.777344 15.011719 23.648438 14.917969 C 23.582031 14.875 23.4375 14.828125 23.359375 14.820312 C 23.273438 14.820312 23.199219 14.863281 23.164062 14.910156 C 23.15625 14.921875 23.128906 14.960938 23.140625 14.988281 C 23.171875 15.074219 23.269531 15.144531 23.457031 15.207031 C 23.5 15.222656 23.539062 15.234375 23.578125 15.246094 C 23.621094 15.257812 23.667969 15.273438 23.707031 15.285156 C 23.953125 15.378906 24.125 15.550781 24.191406 15.765625 C 24.253906 15.972656 24.207031 16.199219 24.0625 16.386719 C 23.976562 16.5 23.8125 16.589844 23.621094 16.640625 L 23.621094 16.804688 C 23.613281 16.957031 23.488281 17.082031 23.332031 17.082031 C 23.332031 17.082031 23.328125 17.082031 23.328125 17.082031 C 23.167969 17.082031 23.042969 16.949219 23.046875 16.796875 L 23.046875 16.667969 C 22.894531 16.636719 22.746094 16.582031 22.609375 16.496094 C 22.480469 16.410156 22.441406 16.234375 22.527344 16.105469 Z M 22.527344 16.105469 " fill-opacity="1" fill-rule="nonzero"/></g><path fill="#ffffff" d="M 19.328125 22.980469 L 19.328125 22.945312 L 19.308594 22.964844 C 19.308594 22.964844 19.316406 22.980469 19.328125 22.980469 Z M 19.328125 22.980469 " fill-opacity="1" fill-rule="nonzero"/><g clip-path="url(#91e2b2b3c3)"><path fill="#ffffff" d="M 31.085938 23.855469 C 30.769531 23.484375 30.105469 23.304688 29.457031 23.679688 C 29.445312 23.6875 29.4375 23.691406 29.425781 23.703125 C 29.371094 23.683594 29.3125 23.671875 29.253906 23.667969 C 29.210938 23.664062 29.175781 23.667969 29.136719 23.667969 C 29.066406 21.003906 26.359375 18.851562 23.039062 18.851562 C 21.609375 18.851562 20.242188 19.25 19.152344 19.976562 C 18.753906 19.375 18.132812 18.734375 17.269531 18.582031 C 17.164062 18.558594 17.058594 18.601562 16.992188 18.683594 C 16.925781 18.765625 16.914062 18.875 16.953125 18.96875 C 16.960938 18.984375 17.519531 20.292969 17.628906 21.484375 C 17.429688 21.792969 17.269531 22.117188 17.152344 22.453125 L 16.722656 22.453125 C 16.144531 22.453125 15.679688 22.84375 15.679688 23.328125 L 15.679688 24.910156 C 15.679688 25.394531 16.144531 25.785156 16.722656 25.785156 L 17.464844 25.785156 C 17.722656 26.25 18.070312 26.675781 18.492188 27.058594 L 18.492188 28.566406 C 18.492188 29.25 19.050781 29.800781 19.742188 29.800781 C 20.433594 29.800781 20.992188 29.246094 20.992188 28.566406 L 20.992188 28.40625 C 21.648438 28.59375 22.332031 28.691406 23.039062 28.691406 C 23.542969 28.691406 24.042969 28.644531 24.523438 28.546875 L 24.523438 28.566406 C 24.523438 29.25 25.082031 29.800781 25.773438 29.800781 C 26.460938 29.800781 27.019531 29.246094 27.019531 28.566406 L 27.019531 27.503906 C 27.613281 27.09375 28.113281 26.582031 28.472656 26.023438 C 28.71875 25.636719 28.894531 25.230469 29.007812 24.8125 C 29.019531 24.863281 29.035156 24.914062 29.058594 24.964844 C 29.167969 25.210938 29.382812 25.359375 29.632812 25.359375 L 29.636719 25.359375 C 29.875 25.359375 30.066406 25.214844 30.128906 24.988281 C 30.207031 24.71875 30.113281 24.363281 29.921875 24.089844 C 30.261719 23.96875 30.539062 24.09375 30.648438 24.222656 C 30.753906 24.339844 30.933594 24.355469 31.054688 24.253906 C 31.171875 24.152344 31.1875 23.972656 31.085938 23.855469 Z M 25.296875 20.96875 C 25.242188 21.039062 25.160156 21.078125 25.074219 21.078125 C 25.011719 21.078125 24.949219 21.058594 24.898438 21.019531 C 23.269531 19.78125 21.65625 20.84375 21.589844 20.886719 C 21.457031 20.976562 21.28125 20.945312 21.191406 20.816406 C 21.101562 20.683594 21.132812 20.511719 21.261719 20.421875 C 21.285156 20.40625 23.28125 19.074219 25.246094 20.570312 C 25.375 20.664062 25.394531 20.839844 25.296875 20.964844 Z M 19.328125 23.511719 C 19.019531 23.511719 18.769531 23.265625 18.769531 22.964844 C 18.769531 22.660156 19.019531 22.417969 19.328125 22.417969 C 19.632812 22.417969 19.882812 22.660156 19.882812 22.964844 C 19.882812 23.265625 19.632812 23.511719 19.328125 23.511719 Z M 19.328125 23.511719 " fill-opacity="1" fill-rule="nonzero"/></g></svg>