<svg xmlns="http://www.w3.org/2000/svg" xmlns:xlink="http://www.w3.org/1999/xlink" width="63" zoomAndPan="magnify" viewBox="0 0 47.25 42.749999" height="57" preserveAspectRatio="xMidYMid meet" version="1.0"><defs><clipPath id="8dab9befc1"><path d="M 14.839844 12.835938 L 31.820312 12.835938 L 31.820312 29.816406 L 14.839844 29.816406 Z M 14.839844 12.835938 " clip-rule="nonzero"/></clipPath></defs><g clip-path="url(#8dab9befc1)"><path fill="#ffffff" d="M 31.261719 22.734375 C 29.589844 22.734375 28.75 24.757812 29.933594 25.941406 C 30.152344 26.15625 30.152344 26.511719 29.933594 26.730469 L 28.734375 27.929688 C 28.515625 28.148438 28.160156 28.148438 27.945312 27.929688 C 26.761719 26.746094 24.738281 27.585938 24.738281 29.257812 C 24.738281 29.566406 24.488281 29.816406 24.179688 29.816406 L 22.480469 29.816406 C 22.171875 29.816406 21.921875 29.566406 21.921875 29.257812 C 21.921875 27.585938 19.898438 26.746094 18.714844 27.929688 C 18.496094 28.148438 18.144531 28.148438 17.925781 27.929688 L 16.726562 26.730469 C 16.507812 26.511719 16.507812 26.15625 16.726562 25.941406 C 17.90625 24.757812 17.070312 22.734375 15.398438 22.734375 C 15.089844 22.734375 14.839844 22.484375 14.839844 22.175781 L 14.839844 20.476562 C 14.839844 20.167969 15.089844 19.917969 15.398438 19.917969 C 17.070312 19.917969 17.90625 17.894531 16.726562 16.710938 C 16.507812 16.492188 16.507812 16.140625 16.726562 15.921875 L 17.925781 14.722656 C 18.144531 14.503906 18.496094 14.503906 18.714844 14.722656 C 19.898438 15.902344 21.921875 15.066406 21.921875 13.394531 C 21.921875 13.085938 22.171875 12.835938 22.480469 12.835938 L 24.179688 12.835938 C 24.488281 12.835938 24.738281 13.085938 24.738281 13.394531 C 24.738281 15.066406 26.761719 15.902344 27.945312 14.722656 C 28.160156 14.503906 28.515625 14.503906 28.734375 14.722656 L 29.933594 15.921875 C 30.152344 16.140625 30.152344 16.492188 29.933594 16.710938 C 28.75 17.894531 29.589844 19.917969 31.261719 19.917969 C 31.570312 19.917969 31.820312 20.167969 31.820312 20.476562 L 31.820312 22.175781 C 31.820312 22.484375 31.570312 22.734375 31.261719 22.734375 Z M 24.964844 17.511719 L 24.964844 18.886719 C 25.746094 19.414062 26.261719 20.308594 26.261719 21.324219 C 26.261719 22.945312 24.949219 24.257812 23.328125 24.257812 C 21.710938 24.257812 20.394531 22.945312 20.394531 21.324219 C 20.394531 20.308594 20.910156 19.414062 21.695312 18.886719 L 21.695312 17.511719 C 20.21875 18.144531 19.179688 19.613281 19.179688 21.324219 C 19.179688 23.617188 21.039062 25.476562 23.328125 25.476562 C 25.621094 25.476562 27.480469 23.617188 27.480469 21.324219 C 27.480469 19.613281 26.441406 18.144531 24.964844 17.511719 Z M 22.933594 15.90625 C 22.835938 15.90625 22.757812 15.984375 22.757812 16.082031 L 22.757812 19.492188 C 22.757812 19.589844 22.835938 19.671875 22.933594 19.671875 L 23.726562 19.671875 C 23.824219 19.671875 23.902344 19.589844 23.902344 19.492188 L 23.902344 16.082031 C 23.902344 15.984375 23.824219 15.90625 23.726562 15.90625 Z M 22.933594 15.90625 " fill-opacity="1" fill-rule="evenodd"/></g></svg>