<svg xmlns="http://www.w3.org/2000/svg" xmlns:xlink="http://www.w3.org/1999/xlink" width="63" zoomAndPan="magnify" viewBox="0 0 47.25 42.749999" height="57" preserveAspectRatio="xMidYMid meet" version="1.0"><defs><clipPath id="eb42f0f26a"><path d="M 13.953125 13.261719 L 32.410156 13.261719 L 32.410156 29.503906 L 13.953125 29.503906 Z M 13.953125 13.261719 " clip-rule="nonzero"/></clipPath></defs><g clip-path="url(#eb42f0f26a)"><path fill="#ffffff" d="M 21.398438 14.253906 C 17.289062 14.253906 13.957031 17.667969 13.957031 21.878906 C 13.957031 26.089844 17.289062 29.503906 21.398438 29.503906 C 25.503906 29.503906 28.835938 26.089844 28.835938 21.878906 C 28.835938 21.75 28.832031 21.625 28.828125 21.496094 C 28.78125 21.5 28.734375 21.5 28.6875 21.5 C 28.320312 21.5 27.964844 21.453125 27.625 21.363281 C 27.640625 21.535156 27.644531 21.707031 27.644531 21.878906 C 27.644531 23.417969 27.117188 24.828125 26.238281 25.933594 C 25.480469 23.949219 23.597656 22.542969 21.398438 22.542969 C 19.195312 22.542969 17.3125 23.949219 16.554688 25.933594 C 15.675781 24.828125 15.148438 23.417969 15.148438 21.878906 C 15.148438 18.34375 17.945312 15.476562 21.398438 15.476562 C 22.503906 15.476562 23.539062 15.769531 24.441406 16.285156 C 24.515625 15.871094 24.644531 15.476562 24.820312 15.109375 C 23.796875 14.5625 22.632812 14.253906 21.398438 14.253906 Z M 21.398438 16.828125 C 22.847656 16.828125 24.023438 18.035156 24.023438 19.519531 C 24.023438 21.007812 22.847656 22.214844 21.398438 22.214844 C 19.945312 22.214844 18.769531 21.007812 18.769531 19.519531 C 18.769531 18.035156 19.945312 16.828125 21.398438 16.828125 Z M 28.6875 13.261719 C 30.742188 13.261719 32.40625 14.96875 32.40625 17.078125 C 32.40625 19.183594 30.742188 20.890625 28.6875 20.890625 C 26.632812 20.890625 24.96875 19.183594 24.96875 17.078125 C 24.96875 14.96875 26.632812 13.261719 28.6875 13.261719 Z M 28.039062 17.742188 L 26.804688 17.742188 C 26.449219 17.742188 26.15625 17.441406 26.15625 17.078125 C 26.15625 16.710938 26.449219 16.410156 26.804688 16.410156 L 28.039062 16.410156 L 28.039062 15.148438 C 28.039062 14.78125 28.332031 14.484375 28.6875 14.484375 C 29.042969 14.484375 29.335938 14.78125 29.335938 15.148438 L 29.335938 16.410156 L 30.570312 16.410156 C 30.925781 16.410156 31.21875 16.710938 31.21875 17.078125 C 31.21875 17.441406 30.925781 17.742188 30.570312 17.742188 L 29.335938 17.742188 L 29.335938 19.003906 C 29.335938 19.371094 29.042969 19.671875 28.6875 19.671875 C 28.332031 19.671875 28.039062 19.371094 28.039062 19.003906 Z M 28.039062 17.742188 " fill-opacity="1" fill-rule="evenodd"/></g></svg>